<?xml version="1.0" encoding="UTF-8" standalone="no"?>
<svg
   width="18px"
   height="18px"
   viewBox="3009 50 450 450"
   class="st1"
   version="1.1"
   id="svg3"
   sodipodi:docname="gc-icon.svg"
   inkscape:version="1.3.2 (091e20e, 2023-11-25, custom)"
   xmlns:inkscape="http://www.inkscape.org/namespaces/inkscape"
   xmlns:sodipodi="http://sodipodi.sourceforge.net/DTD/sodipodi-0.dtd"
   xmlns:xlink="http://www.w3.org/1999/xlink"
   xmlns="http://www.w3.org/2000/svg"
   xmlns:svg="http://www.w3.org/2000/svg">
  <defs
     id="defs3">
    <linearGradient
       id="linearGradient3"
       inkscape:collect="always">
      <stop
         style="stop-color:#3e49e8;stop-opacity:1;"
         offset="0"
         id="stop3" />
      <stop
         style="stop-color:#535ffa;stop-opacity:1;"
         offset="0.38598573"
         id="stop5" />
      <stop
         style="stop-color:#797fd1;stop-opacity:1;"
         offset="0.69596195"
         id="stop4" />
    </linearGradient>
    <inkscape:path-effect
       effect="fillet_chamfer"
       id="path-effect3"
       is_visible="true"
       lpeversion="1"
       nodesatellites_param="F,0,0,1,0,0,0,1 @ F,0,0,1,0,0,0,1 @ F,0,0,1,0,0,0,1 @ F,0,0,1,0,0,0,1 @ F,0,0,1,0,0,0,1 @ F,0,0,1,0,0,0,1 @ F,0,0,1,0,0,0,1 @ F,0,0,1,0,0,0,1 @ F,0,0,1,0,0,0,1 @ F,0,0,1,0,0,0,1 @ F,0,0,1,0,0,0,1 @ F,0,0,1,0,0,0,1 @ F,0,0,1,0,0,0,1 @ F,0,0,1,0,0,0,1 @ F,0,0,1,0,0,0,1 @ F,0,0,1,0,0,0,1 @ F,0,0,1,0,0,0,1 @ F,0,0,1,0,0,0,1 @ F,0,0,1,0,0,0,1 @ F,0,0,1,0,0,0,1 @ F,0,0,1,0,0,0,1 @ F,0,0,1,0,0,0,1 @ F,0,0,1,0,0,0,1 @ F,0,0,1,0,0,0,1 @ F,0,0,1,0,0,0,1 @ F,0,0,1,0,0,0,1 @ F,0,0,1,0,0,0,1 @ F,0,0,1,0,0,0,1 @ F,0,0,1,0,0,0,1 @ F,0,0,1,0,0,0,1 @ F,0,0,1,0,0,0,1 | F,0,0,1,0,0,0,1 @ F,0,0,1,0,0,0,1 @ F,0,0,1,0,0,0,1 @ F,0,0,1,0,0,0,1 @ F,0,0,1,0,0,0,1 @ F,0,0,1,0,0,0,1 @ F,0,0,1,0,0,0,1 @ F,0,0,1,0,0,0,1 @ F,0,0,1,0,0,0,1 @ F,0,0,1,0,0,0,1 @ F,0,0,1,0,0,0,1 @ F,0,0,1,0,0,0,1 @ F,0,0,1,0,0,0,1 @ F,0,0,1,0,0,0,1 @ F,0,0,1,0,0,0,1 @ F,0,0,1,0,0,0,1 @ F,0,0,1,0,0,0,1 @ F,0,0,1,0,0,0,1 @ F,0,0,1,0,0,0,1 @ F,0,0,1,0,0,0,1 @ F,0,0,1,0,0,0,1 @ F,0,0,1,0,0,0,1 @ F,0,0,1,0,0,0,1 @ F,0,0,1,0,0,0,1 @ F,0,0,1,0,0,0,1 @ F,0,0,1,0,0,0,1 @ F,0,0,1,0,0,0,1 @ F,0,0,1,0,0,0,1 @ F,0,0,1,0,0,0,1 @ F,0,0,1,0,0,0,1 @ F,0,0,1,0,0,0,1 @ F,0,0,1,0,0,0,1 @ F,0,0,1,0,0,0,1 @ F,0,0,1,0,31.083372,0,1 | F,0,0,1,0,0,0,1 @ F,0,0,1,0,0,0,1 @ F,0,0,1,0,0,0,1 @ F,0,0,1,0,0,0,1 @ F,0,0,1,0,0,0,1 @ F,0,0,1,0,0,0,1 @ F,0,0,1,0,0,0,1 @ F,0,0,1,0,0,0,1 @ F,0,0,1,0,0,0,1 @ F,0,0,1,0,0,0,1 @ F,0,0,1,0,0,0,1 @ F,0,0,1,0,0,0,1 @ F,0,0,1,0,0,0,1 @ F,0,0,1,0,0,0,1 @ F,0,0,1,0,0,0,1 @ F,0,0,1,0,0,0,1 @ F,0,0,1,0,0,0,1"
       radius="0"
       unit="px"
       method="auto"
       mode="F"
       chamfer_steps="1"
       flexible="false"
       use_knot_distance="true"
       apply_no_radius="true"
       apply_with_radius="true"
       only_selected="false"
       hide_knots="false" />
    <linearGradient
       inkscape:collect="always"
       xlink:href="#linearGradient3"
       id="linearGradient4"
       x1="3009"
       y1="466.32501"
       x2="3459"
       y2="100.70001"
       gradientUnits="userSpaceOnUse" />
  </defs>
  <sodipodi:namedview
     id="namedview3"
     pagecolor="#ffffff"
     bordercolor="#000000"
     borderopacity="0.25"
     inkscape:showpageshadow="2"
     inkscape:pageopacity="0.0"
     inkscape:pagecheckerboard="0"
     inkscape:deskcolor="#d1d1d1"
     inkscape:zoom="32"
     inkscape:cx="20.296875"
     inkscape:cy="5.796875"
     inkscape:window-width="3440"
     inkscape:window-height="1369"
     inkscape:window-x="-8"
     inkscape:window-y="-8"
     inkscape:window-maximized="1"
     inkscape:current-layer="svg3" />
  <g
     id="g3"
     transform="matrix(0.89914686,0,0,0.91873883,326.15906,15.88694)">
    <g
       id="Laag_1"
       transform="matrix(0.93135853,0,0,0.8881351,234.42059,26.070713)">
      <path
         d="m 3436.9,158.5 c 0,-3.6 -0.4,-7 -0.9,-10.8 -2.6,-20.6 -12.9,-39.8 -29,-53.9 -16.3,-14.2 -37,-22.1 -58.4,-22.1 h -0.3 c -56,0.2 -112.9,0.2 -168,0.1 h -87.5 c -3.9,0 -8.1,0.3 -12.9,0.9 -20.5,2.7 -39.5,12.9 -53.6,28.9 -14.2,16.1 -22,36.6 -21.9,57.6 v 94.3 78.3 c 0,3.8 0.3,7.6 0.9,11.5 5.4,33.9 24.4,57.5 56.3,70 6.6,2.6 13.5,3.9 20.7,5.3 2.3,0.5 4.7,0.9 7.1,1.4 v 1.7 15.5 c 0,13.6 -0.1,27.8 0.3,41.6 0.2,5.9 2.4,12.3 5.8,16.7 4.2,5.5 10.2,8.8 16.7,9.2 h 1.5 c 6.7,0 13.2,-2.9 18.6,-8.3 26.5,-26.4 50.9,-50.9 74.5,-74.7 1.9,-1.9 3.5,-2.5 6.2,-2.5 51.1,0.1 93.2,0.1 132.5,0 6.7,0 13.5,-0.7 20.4,-2 40.4,-7.5 70.9,-44.1 71,-85.1 V 158.6 Z m -233.3,186 c -18.2972,16.17079 -40.7,21.6 -70,21.6 -29.3,0 -51.3,-6.3 -66.1,-15.2 l -2.8,-1.7 12.1,-43 4.7,2.7 c 11.8,6.8 32.5,14 54.8,14 22.3,0 38.4,-10.1 38.4,-27 0,-16.9 -10.1,-23.9 -38.8,-34 -44.9,-15.6 -66.8,-38.7 -66.8,-70.6 0,-31.9 8.6,-37.8 24.1,-50.4 15.9,-12.9 37.9,-19.8 63.7,-19.8 25.8,0 34.1,2.6 48.1,7.7 1.2,0.4 2.4,0.9 3.9,1.5 h 0.1 l 3.5,1.6 30.3,13.2 18.8,-43.2 39.7,17.2 -18.8,43.2 41.4,18 -17.2,39.7 -41.4,-18 -18.8,43.2 -39.7,-17.2 18.8,-43.2 -19.7,-8.6 v 0.5 c -0.1,0 -4.8,-2.3 -4.8,-2.3 -9.4,-4.8 -24.9,-10.4 -45.3,-10.4 -20.4,0 -34.5,12.5 -34.5,23.3 0,10.8 9.1,21.2 42.3,33.7 43.7,16 63.2,38.2 63.2,71.9 0,2.69386 -0,5.17276 -0.014,7.45219 -0.045,11.05976 -10.4813,32.91946 -23.186,44.14781 z m 171.8,-35.9 c -3.8,11.3 -8.8,22.3 -14.8,32.6 l -2,3.4 -2,-0.9 -34.7,-15.1 -19,43.7 -40,-17.4 19,-43.7 -41.9,-18.2 17.4,-40 41.9,18.2 19,-43.7 40,17.4 -19,43.7 37.4,16.2 -1.3,3.7 z"
         id="path1"
         sodipodi:nodetypes="sccsccsccccscccccscccsccsscccccsssccccsscscscccccccccccccccccssccsscccccccccccccccccc"
         inkscape:path-effect="#path-effect3"
         inkscape:original-d="m 3436.9,158.5 c 0,-3.6 -0.4,-7 -0.9,-10.8 -2.6,-20.6 -12.9,-39.8 -29,-53.9 -16.3,-14.2 -37,-22.1 -58.4,-22.1 h -0.3 c -56,0.2 -112.9,0.2 -168,0.1 h -87.5 c -3.9,0 -8.1,0.3 -12.9,0.9 -20.5,2.7 -39.5,12.9 -53.6,28.9 -14.2,16.1 -22,36.6 -21.9,57.6 v 94.3 78.3 c 0,3.8 0.3,7.6 0.9,11.5 5.4,33.9 24.4,57.5 56.3,70 6.6,2.6 13.5,3.9 20.7,5.3 2.3,0.5 4.7,0.9 7.1,1.4 v 1.7 15.5 c 0,13.6 -0.1,27.8 0.3,41.6 0.2,5.9 2.4,12.3 5.8,16.7 4.2,5.5 10.2,8.8 16.7,9.2 h 1.5 c 6.7,0 13.2,-2.9 18.6,-8.3 26.5,-26.4 50.9,-50.9 74.5,-74.7 1.9,-1.9 3.5,-2.5 6.2,-2.5 v 0 c 51.1,0.1 93.2,0.1 132.5,0 6.7,0 13.5,-0.7 20.4,-2 40.4,-7.5 70.9,-44.1 71,-85.1 v -173.5 0 z m -233.3,186 c -18.2972,16.17079 -40.7,21.6 -70,21.6 -29.3,0 -51.3,-6.3 -66.1,-15.2 l -2.8,-1.7 12.1,-43 4.7,2.7 c 11.8,6.8 32.5,14 54.8,14 22.3,0 38.4,-10.1 38.4,-27 0,-16.9 -10.1,-23.9 -38.8,-34 -44.9,-15.6 -66.8,-38.7 -66.8,-70.6 0,-31.9 8.6,-37.8 24.1,-50.4 15.9,-12.9 37.9,-19.8 63.7,-19.8 25.8,0 34.1,2.6 48.1,7.7 1.2,0.4 2.4,0.9 3.9,1.5 h 0.1 l 3.5,1.6 30.3,13.2 18.8,-43.2 39.7,17.2 -18.8,43.2 41.4,18 -17.2,39.7 -41.4,-18 -18.8,43.2 -39.7,-17.2 18.8,-43.2 -19.7,-8.6 v 0.5 c -0.1,0 -4.8,-2.3 -4.8,-2.3 -9.4,-4.8 -24.9,-10.4 -45.3,-10.4 -20.4,0 -34.5,12.5 -34.5,23.3 0,10.8 9.1,21.2 42.3,33.7 43.7,16 63.2,38.2 63.2,71.9 0,48.97297 -1.5287,26.90357 -5.0613,26.83132 -4.0489,-0.0828 -10.5921,18.09914 -18.1387,24.76868 z m 171.8,-35.9 c -3.8,11.3 -8.8,22.3 -14.8,32.6 l -2,3.4 -2,-0.9 -34.7,-15.1 -19,43.7 -40,-17.4 19,-43.7 -41.9,-18.2 17.4,-40 41.9,18.2 19,-43.7 40,17.4 -19,43.7 37.4,16.2 -1.3,3.7 v 0 z"
         style="fill:url(#linearGradient4)" />
      <path
         style="fill:#ffffff;fill-opacity:1"
         d="m 3227,292.9 c 0,20.4 -8.3,38.7 -23.4,51.6 -16.5,14.1 -40.7,21.6 -70,21.6 -29.3,0 -51.3,-6.3 -66.1,-15.2 l -2.8,-1.7 12.1,-43 4.7,2.7 c 11.8,6.8 32.5,14 54.8,14 22.3,0 38.4,-10.1 38.4,-27 0,-16.9 -10.1,-23.9 -38.8,-34 -44.9,-15.6 -66.8,-38.7 -66.8,-70.6 0,-31.9 8.6,-37.8 24.1,-50.4 15.9,-12.9 37.9,-19.8 63.7,-19.8 25.8,0 34.1,2.6 48.1,7.7 1.2,0.4 2.4,0.9 3.9,1.5 h 0.1 c 0,0 3.5,1.6 3.5,1.6 l 30.3,13.2 18.8,-43.2 39.7,17.2 -18.8,43.2 41.4,18 -17.2,39.7 -41.4,-18 -18.8,43.2 -39.7,-17.2 18.8,-43.2 -19.7,-8.6 v 0.5 c -0.1,0 -4.8,-2.3 -4.8,-2.3 -9.4,-4.8 -24.9,-10.4 -45.3,-10.4 -20.4,0 -34.5,12.5 -34.5,23.3 0,10.8 9.1,21.2 42.3,33.7 43.7,16 63.2,38.2 63.2,71.9 v 0 z"
         id="path2" />
      <path
         style="fill:#ffffff;fill-opacity:1"
         d="m 3376.6,304.9 -1.3,3.7 c -3.8,11.3 -8.8,22.3 -14.8,32.6 l -2,3.4 -2,-0.9 -34.7,-15.1 -19,43.7 -40,-17.4 19,-43.7 -41.9,-18.2 17.4,-40 41.9,18.2 19,-43.7 40,17.4 -19,43.7 37.4,16.2 v 0 z"
         id="path3" />
    </g>
  </g>
</svg>
