<?xml version="1.0" encoding="UTF-8"?>
<!-- Created with Inkscape (http://www.inkscape.org/) -->
<svg width="30" height="30" version="1.1" viewBox="0 0 7.9375 7.9375" xml:space="preserve" xmlns="http://www.w3.org/2000/svg"><g transform="matrix(.34621 0 0 .34621 -.61128 -.61128)" fill="none" stroke="#fff" stroke-linecap="round" stroke-linejoin="round"><path d="m13.229 2.6894v6.0412" stroke-width="1.323"/><path d="m13.229 8.7307 3.3035-3.6181" stroke-width="1.3229"/><path d="m13.229 8.7307-3.3035-3.6181" stroke-width="1.3229"/><path d="m13.229 23.769v-6.0412" stroke-width="1.323"/><g stroke-width="1.3229"><path d="m13.229 17.728 3.3035 3.6181"/><path d="m13.229 17.728-3.3035 3.6181"/><path d="m13.229 17.728v-8.997"/></g><g transform="rotate(60 13.229 13.229)"><path d="m13.229 2.6894v6.0412" stroke-width="1.323"/><path d="m13.229 8.7307 3.3035-3.6181" stroke-width="1.3229"/><path d="m13.229 8.7307-3.3035-3.6181" stroke-width="1.3229"/><path d="m13.229 23.769v-6.0412" stroke-width="1.323"/><g stroke-width="1.3229"><path d="m13.229 17.728 3.3035 3.6181"/><path d="m13.229 17.728-3.3035 3.6181"/><path d="m13.229 17.728v-8.997"/></g></g><g transform="rotate(120 13.229 13.229)"><path d="m13.229 2.6894v6.0412" stroke-width="1.323"/><path d="m13.229 8.7307 3.3035-3.6181" stroke-width="1.3229"/><path d="m13.229 8.7307-3.3035-3.6181" stroke-width="1.3229"/><path d="m13.229 23.769v-6.0412" stroke-width="1.323"/><g stroke-width="1.3229"><path d="m13.229 17.728 3.3035 3.6181"/><path d="m13.229 17.728-3.3035 3.6181"/><path d="m13.229 17.728v-8.997"/></g></g></g></svg>
