<svg width="48" height="48" viewBox="0 0 48 48" fill="none" xmlns="http://www.w3.org/2000/svg">
<path fill-rule="evenodd" clip-rule="evenodd" d="M0 4.56444V43.4356C0 45.9564 2.04357 48 4.56444 48H43.4356C45.9564 48 48 45.9564 48 43.4356V4.56444C48 2.04357 45.9564 0 43.4356 0H4.56444C2.04357 0 0 2.04357 0 4.56444Z" fill="url(#paint0_linear)"/>
<path fill-rule="evenodd" clip-rule="evenodd" d="M12.86 39.2864C14.7993 40.4588 18.6777 41.4783 22.4514 41.4783C31.5187 41.4783 35.8165 36.6867 35.8165 31.1304C35.8165 26.1859 32.8814 23.1784 26.7492 20.9355C22.0321 19.1514 19.9881 17.928 19.9881 15.2774C19.9881 13.2384 21.7177 11.1484 25.8058 11.1484C29.1078 11.1484 31.5711 12.1169 32.8814 12.7796L34.4014 7.73313C32.567 6.81559 29.7891 6 25.963 6C18.2585 6 13.4365 10.2309 13.4365 15.8891C13.4365 20.8336 17.1578 23.8411 23.028 25.8801C27.483 27.4603 29.265 28.9895 29.265 31.5892C29.265 34.3928 26.9589 36.2789 22.8707 36.2789C19.5688 36.2789 16.3716 35.2594 14.3275 34.087L12.86 39.2864Z" fill="white"/>
<defs>
<linearGradient id="paint0_linear" x1="0" y1="0" x2="0" y2="48" gradientUnits="userSpaceOnUse">
<stop stop-color="#FF840E"/>
<stop offset="0.0843099" stop-color="#FF710E"/>
<stop offset="0.734766" stop-color="#FF0000"/>
<stop offset="1" stop-color="#F10A00"/>
</linearGradient>
</defs>
</svg>
